PathFileType	3	(X/Y/Z)	C:\Users\hrist\Documents\PhD\NeuroM Model Experiments\Complete_Controller_Data_Collection\S2_M\LG_Walk_Slower\LG_Walk_Slower01.trc																																																																																																							
DataRate	CameraRate	NumFrames	NumMarkers	Units	OrigDataRate	OrigDataStartFrame	OrigNumFrames																																																																																																			
100	100	4	35	mm	100	672	481																																																																																																			
Frame#	Time	R.ASIS			L.ASIS			V.Sacral			R.Thigh.Upper			R.Knee.Med			R.Knee.Lat			R.Thigh.Rear			R.Thigh.Front			L.Thigh.Upper			L.Knee.Med			L.Knee.Lat			L.Thigh.Rear			L.Thigh.Front			R.Shank.Upper			R.Ankle.Med			R.Ankle.Lat			R.Shank.Front			R.Shank.Rear			L.Shank.Upper			L.Ankle.Med			L.Ankle.Lat			L.Shank.Front			L.Shank.Rear			R.Toe.Tip			R.Heel			R.Toe.Med			R.Toe.Lat			R.Midfoot.Lat			R.Midfoot.Sup			L.Heel			L.Toe.Tip			L.Toe.Med			L.Toe.Lat			L.Midfoot.Lat			L.Midfoot.Sup		
		X1	Y1	Z1	X2	Y2	Z2	X3	Y3	Z3	X4	Y4	Z4	X5	Y5	Z5	X6	Y6	Z6	X7	Y7	Z7	X8	Y8	Z8	X9	Y9	Z9	X10	Y10	Z10	X11	Y11	Z11	X12	Y12	Z12	X13	Y13	Z13	X14	Y14	Z14	X15	Y15	Z15	X16	Y16	Z16	X17	Y17	Z17	X18	Y18	Z18	X19	Y19	Z19	X20	Y20	Z20	X21	Y21	Z21	X22	Y22	Z22	X23	Y23	Z23	X24	Y24	Z24	X25	Y25	Z25	X26	Y26	Z26	X27	Y27	Z27	X28	Y28	Z28	X29	Y29	Z29	X30	Y30	Z30	X31	Y31	Z31	X32	Y32	Z32	X33	Y33	Z33	X34	Y34	Z34	X35	Y35	Z35
672	6.71	-27.29550242	987.8716923	-345.8178734	233.2999439	1005.174597	-309.7156284	125.3984855	1021.875131	-512.6048881	-91.24008631	759.6818468	-423.7969565	24.98713943	491.0914678	-366.0911171	-105.463338	518.0068065	-395.3886168	-93.4218207	650.0324711	-409.0651092	-27.07402173	710.1336836	-279.806511	294.9922034	818.675115	-398.5150413	113.8352637	517.7958008	-395.4287943	244.0301816	505.093321	-403.6623536	265.2789886	662.8411298	-398.0082185	212.3625451	729.5153627	-281.7863967	-110.4056322	481.657331	-414.0845161	-30.75714368	186.3155265	-636.1884913	-104.0913517	200.4223178	-688.0507133	-70.71778637	391.4841175	-393.5057552	-125.2437261	430.5571516	-479.6380587	243.6803143	463.6146244	-404.9677515	101.5420906	93.95022876	-369.7131963	182.2307331	75.6039167	-412.724696	194.0189118	428.5659383	-346.2190383	248.3711362	391.1083066	-405.7137199	-104.0491089	57.42365626	-546.4300418	-42.25172852	195.3038914	-758.6412619	-62.15359702	66.74934223	-584.4909527	-164.6932896	79.7269481	-614.1994865	-148.9990095	112.1572077	-639.8589597	-62.8942839	107.8050311	-596.4794401	115.1652429	34.02359103	-460.8979787	179.3163246	43.533591	-208.5155605	132.4971652	33.26964589	-246.3150628	236.8467742	26.2618833	-279.2882917	221.5563412	38.61262382	-314.9108577	125.7553843	47.19761785	-282.6724269
673	6.72	-25.70507307	988.6849943	-342.5241576	234.9072403	1005.028961	-306.4941541	126.6942797	1022.218088	-509.3279236	-90.02301037	760.151369	-418.1900198	26.98101131	492.1600757	-357.78321	-103.1471554	518.801058	-386.3981031	-92.09335895	650.5412837	-401.9994993	-25.02416887	712.0355006	-274.1084801	295.7987313	818.4341634	-395.554878	114.2339077	517.8039732	-393.0133668	244.3855427	504.9787443	-401.2128556	265.8730943	662.6964022	-395.3339444	213.173666	729.1203132	-278.7571438	-108.0697107	482.4060846	-405.2733962	-29.33795697	184.0135544	-623.3193379	-102.2551621	197.8873872	-675.7939451	-69.1903248	392.2869956	-383.4576053	-123.1062908	430.6312626	-470.3427143	243.8101042	463.8488773	-403.069494	101.2440251	93.75806029	-369.4791216	182.0770121	75.69187209	-412.2931957	194.1879578	428.2626272	-344.1180308	248.6152417	390.9559019	-403.6037313	-104.3612787	58.03556816	-531.4140216	-40.04702933	190.7966845	-745.981804	-62.1952573	66.14768528	-569.3900244	-164.4257785	79.40102577	-600.0360818	-148.2300529	111.0890566	-626.2403974	-62.44235354	106.9120366	-582.2231858	115.1060676	34.13715691	-460.8086703	179.3455868	42.88445677	-208.2062357	132.4959972	32.84818073	-246.1051578	236.8809589	26.24416825	-279.1694811	221.5313267	38.65396997	-314.8330172	125.8050534	46.84040107	-282.5773746
674	6.73	-24.21008628	989.4191796	-339.3149719	236.4004129	1004.853238	-303.2917769	127.9641344	1022.52572	-506.0927938	-88.7740227	760.5609853	-412.5667846	28.93317744	493.2422119	-349.5534267	-100.8402451	519.4739956	-377.4079848	-90.80674749	651.0341768	-395.0664038	-22.99603008	713.9252198	-268.4470891	296.5967759	818.1519383	-392.58348	114.582757	517.791971	-390.5765474	244.6953768	504.8195147	-398.6434069	266.4613701	662.5019402	-392.6051837	213.9574885	728.7399912	-275.7538012	-105.9258412	483.0499226	-396.5161177	-28.04347775	181.1507229	-609.9543357	-100.502189	194.7879927	-662.9911429	-67.60806918	393.0775181	-373.3323227	-121.1129501	430.4154271	-460.9478333	244.0738137	464.1587026	-401.1492526	100.8692023	93.5379884	-369.2380385	181.8823044	75.76163421	-411.812368	194.2428947	427.940984	-341.9094999	248.8630657	390.7366042	-401.2983175	-104.8682412	58.25315015	-515.8191431	-37.95991138	185.6446724	-732.7434926	-62.42838575	65.14475338	-553.6149499	-164.3390718	78.74671562	-585.2185411	-147.6112458	109.6582659	-611.9786194	-62.12133973	105.6201225	-567.3211101	115.034386	34.25923899	-460.6959218	179.3843724	42.15076744	-207.8731947	132.503523	32.38218914	-245.8550091	236.904655	26.21716726	-279.0269491	221.5076785	38.7283596	-314.7291542	125.9227697	46.41217262	-282.5389398
675	6.74	-22.8228849	990.0873059	-336.1821119	237.7755781	1004.630847	-300.1053653	129.2202361	1022.756391	-502.9172938	-87.578145	760.9705094	-407.0907831	30.82349147	494.3463404	-341.3985265	-98.69886418	520.1075354	-368.506406	-89.57338978	651.5741193	-388.2859463	-20.97809655	715.8016898	-262.840831	297.3782281	817.8097926	-389.5847557	114.8535245	517.7725063	-388.1082679	244.9402074	504.6029402	-395.950054	266.9944877	662.2416112	-389.8177263	214.6935933	728.3789863	-272.8100818	-103.9914979	483.569417	-387.8341284	-26.91448005	177.8801782	-596.1033376	-98.89934484	191.1606725	-649.6666421	-66.01516743	393.850385	-363.1476378	-119.2593155	429.9799416	-451.4671149	244.4777288	464.2631051	-398.8626994	100.4529123	93.32830251	-368.9109388	181.6041015	75.76671046	-411.2951418	194.1823963	427.5926102	-339.5779751	249.040924	390.4806148	-398.8395274	-105.4547467	58.16803203	-499.615151	-36.08122618	179.9588059	-718.9624842	-62.74382571	63.82680396	-537.2223911	-164.3437592	77.70059883	-569.7777881	-147.1115643	107.8106488	-597.1288436	-61.88962637	103.9746907	-551.8636729	114.9454856	34.38428258	-460.5593163	179.4180334	41.3940381	-207.5342233	132.5423103	31.91348362	-245.6254312	236.9139126	26.18059348	-278.8753801	221.4836398	38.82912914	-314.6091129	126.0105696	45.94999831	-282.4492988
